<svg width="279" height="77" viewBox="0 0 279 77" fill="none" xmlns="http://www.w3.org/2000/svg">
<g filter="url(#filter0_d_111_108)">
<mask id="path-1-outside-1_111_108" maskUnits="userSpaceOnUse" x="-1.5" y="-1" width="279" height="75" fill="black">
<rect fill="white" x="-1.5" y="-1" width="279" height="75"/>
<path d="M19.7812 68.9375H19.5C7.25 68.9375 0.84375 58.0312 0.28125 36.2188C0.25 35.25 0.234375 34.3125 0.234375 33.4062C0.234375 13.25 6.42188 2.625 18.7969 1.53125C19.5781 1.46875 20.3281 1.4375 21.0469 1.4375C28.1094 1.4375 32.6406 4.90625 34.6406 11.8438L25.7812 15.0781C25.0312 12.5781 23.2969 11.3281 20.5781 11.3281C20.0156 11.3281 19.4062 11.375 18.75 11.4688C12.5938 12.5313 9.51562 19.4688 9.51562 32.2812C9.51562 33.4375 9.54688 34.625 9.60938 35.8438C10.1719 50.7812 13.4844 58.25 19.5469 58.25H19.7344C24.9844 58.1562 27.6094 51.5156 27.6094 38.3281L17.8125 37.9531L18.6562 29.0469L37.4531 28.1562C37.4219 55.25 31.5312 68.8438 19.7812 68.9375ZM45.9825 59.7031L44.6231 66.4062L34.9669 66.5938L46.3575 14.4688L53.9044 14.0469L69.1856 66.1719H58.4981L56.9044 59.1875L45.9825 59.7031ZM54.7012 49.8125L51.0919 34.0625L47.8106 50.375L54.7012 49.8125ZM87.2775 62.7031L81.2306 43.4844L80.9962 68.9844L71.1994 68.5156L70.59 16.5781L80.6212 17.7031L87.7462 43.5781L95.9025 16.5312L104.996 16.3438L104.387 68.2812L94.59 68.75L94.3556 43.25L88.3087 62.5156L87.2775 62.7031ZM116.526 46.4375L116.666 59.1406L128.479 58.4375L129.135 68.5156H106.869L106.26 16.5781L129.932 16.7656L130.588 25.9062L116.291 27.0781L116.385 36.9688L127.401 37.9531L126.932 47.375L116.526 46.4375ZM182.803 33.2188C182.834 34.125 182.85 35.0156 182.85 35.8906C182.85 56.1406 176.647 66.8125 164.241 67.9062C163.616 67.9688 163.006 68 162.413 68C150.694 68 144.803 57.0469 144.741 35.1406V34.625C144.741 12 150.913 0.609375 163.256 0.453125H163.444C175.756 0.453125 182.209 11.375 182.803 33.2188ZM163.303 11.1406C157.209 11.2969 154.163 19.0312 154.163 34.3438V35.0469C154.225 49.7969 157.163 57.1719 162.975 57.1719C163.381 57.1719 163.819 57.125 164.288 57.0312C170.444 55.9688 173.522 49.1094 173.522 36.4531C173.522 35.3906 173.506 34.2812 173.475 33.125C172.881 18.4688 169.538 11.1406 163.444 11.1406H163.303ZM219.223 18.7812L207.833 70.9062L200.286 71.3281L185.004 19.2031H195.692L203.098 51.3125L209.567 18.9688L219.223 18.7812ZM230.893 46.4375L231.034 59.1406L242.846 58.4375L243.503 68.5156H221.237L220.628 16.5781L244.299 16.7656L244.956 25.9062L230.659 27.0781L230.753 36.9688L241.768 37.9531L241.299 47.375L230.893 46.4375ZM256.016 35.9844C261.141 35.7344 263.704 33.6562 263.704 29.75C263.704 29.5 263.594 28.2188 263.376 25.9062C263.188 23.5938 260.735 22.4375 256.016 22.4375V35.9844ZM257.798 45.0781C257.235 45.2031 256.641 45.3281 256.016 45.4531L256.673 66.125L246.313 65.9375L246.735 13.3906H247.391C264.141 13.3906 272.673 18.125 272.985 27.5938V28.2031C272.985 33.8906 270.86 38.25 266.61 41.2812L275.751 72.1719L265.016 71.5625L257.798 45.0781Z"/>
</mask>
<path d="M19.7812 68.9375H19.5C7.25 68.9375 0.84375 58.0312 0.28125 36.2188C0.25 35.25 0.234375 34.3125 0.234375 33.4062C0.234375 13.25 6.42188 2.625 18.7969 1.53125C19.5781 1.46875 20.3281 1.4375 21.0469 1.4375C28.1094 1.4375 32.6406 4.90625 34.6406 11.8438L25.7812 15.0781C25.0312 12.5781 23.2969 11.3281 20.5781 11.3281C20.0156 11.3281 19.4062 11.375 18.75 11.4688C12.5938 12.5313 9.51562 19.4688 9.51562 32.2812C9.51562 33.4375 9.54688 34.625 9.60938 35.8438C10.1719 50.7812 13.4844 58.25 19.5469 58.25H19.7344C24.9844 58.1562 27.6094 51.5156 27.6094 38.3281L17.8125 37.9531L18.6562 29.0469L37.4531 28.1562C37.4219 55.25 31.5312 68.8438 19.7812 68.9375ZM45.9825 59.7031L44.6231 66.4062L34.9669 66.5938L46.3575 14.4688L53.9044 14.0469L69.1856 66.1719H58.4981L56.9044 59.1875L45.9825 59.7031ZM54.7012 49.8125L51.0919 34.0625L47.8106 50.375L54.7012 49.8125ZM87.2775 62.7031L81.2306 43.4844L80.9962 68.9844L71.1994 68.5156L70.59 16.5781L80.6212 17.7031L87.7462 43.5781L95.9025 16.5312L104.996 16.3438L104.387 68.2812L94.59 68.75L94.3556 43.25L88.3087 62.5156L87.2775 62.7031ZM116.526 46.4375L116.666 59.1406L128.479 58.4375L129.135 68.5156H106.869L106.26 16.5781L129.932 16.7656L130.588 25.9062L116.291 27.0781L116.385 36.9688L127.401 37.9531L126.932 47.375L116.526 46.4375ZM182.803 33.2188C182.834 34.125 182.85 35.0156 182.85 35.8906C182.85 56.1406 176.647 66.8125 164.241 67.9062C163.616 67.9688 163.006 68 162.413 68C150.694 68 144.803 57.0469 144.741 35.1406V34.625C144.741 12 150.913 0.609375 163.256 0.453125H163.444C175.756 0.453125 182.209 11.375 182.803 33.2188ZM163.303 11.1406C157.209 11.2969 154.163 19.0312 154.163 34.3438V35.0469C154.225 49.7969 157.163 57.1719 162.975 57.1719C163.381 57.1719 163.819 57.125 164.288 57.0312C170.444 55.9688 173.522 49.1094 173.522 36.4531C173.522 35.3906 173.506 34.2812 173.475 33.125C172.881 18.4688 169.538 11.1406 163.444 11.1406H163.303ZM219.223 18.7812L207.833 70.9062L200.286 71.3281L185.004 19.2031H195.692L203.098 51.3125L209.567 18.9688L219.223 18.7812ZM230.893 46.4375L231.034 59.1406L242.846 58.4375L243.503 68.5156H221.237L220.628 16.5781L244.299 16.7656L244.956 25.9062L230.659 27.0781L230.753 36.9688L241.768 37.9531L241.299 47.375L230.893 46.4375ZM256.016 35.9844C261.141 35.7344 263.704 33.6562 263.704 29.75C263.704 29.5 263.594 28.2188 263.376 25.9062C263.188 23.5938 260.735 22.4375 256.016 22.4375V35.9844ZM257.798 45.0781C257.235 45.2031 256.641 45.3281 256.016 45.4531L256.673 66.125L246.313 65.9375L246.735 13.3906H247.391C264.141 13.3906 272.673 18.125 272.985 27.5938V28.2031C272.985 33.8906 270.86 38.25 266.61 41.2812L275.751 72.1719L265.016 71.5625L257.798 45.0781Z" fill="white"/>
<path d="M19.7812 68.9375V69.9375L19.7892 69.9375L19.7812 68.9375ZM0.28125 36.2188L1.28094 36.193L1.28073 36.1865L0.28125 36.2188ZM18.7969 1.53125L18.7171 0.534401L18.7088 0.535133L18.7969 1.53125ZM34.6406 11.8438L34.9836 12.7831L35.8599 12.4632L35.6015 11.5667L34.6406 11.8438ZM25.7812 15.0781L24.8234 15.3655L25.1281 16.3811L26.1242 16.0175L25.7812 15.0781ZM18.75 11.4688L18.6086 10.4788L18.5942 10.4809L18.5799 10.4833L18.75 11.4688ZM9.60938 35.8438L10.6088 35.8061L10.6081 35.7925L9.60938 35.8438ZM19.7344 58.25V59.25H19.7433L19.7522 59.2498L19.7344 58.25ZM27.6094 38.3281H28.6094V37.3657L27.6476 37.3289L27.6094 38.3281ZM17.8125 37.9531L16.817 37.8588L16.7172 38.9119L17.7743 38.9524L17.8125 37.9531ZM18.6562 29.0469L18.6089 28.048L17.7425 28.089L17.6607 28.9526L18.6562 29.0469ZM37.4531 28.1562L38.4531 28.1574L38.4543 27.1077L37.4058 27.1574L37.4531 28.1562ZM19.7812 67.9375H19.5V69.9375H19.7812V67.9375ZM19.5 67.9375C13.7436 67.9375 9.40078 65.4109 6.37006 60.2513C3.29415 55.0148 1.56056 47.0368 1.28092 36.193L-0.718418 36.2445C-0.435558 47.2132 1.31522 55.5946 4.64556 61.2643C8.02109 67.0109 13.0064 69.9375 19.5 69.9375V67.9375ZM1.28073 36.1865C1.2498 35.2278 1.23438 34.301 1.23438 33.4062H-0.765625C-0.765625 34.324 -0.749803 35.2722 -0.71823 36.251L1.28073 36.1865ZM1.23438 33.4062C1.23438 23.4039 2.77424 15.9148 5.73915 10.8236C8.66751 5.79504 13.0168 3.04602 18.8849 2.52737L18.7088 0.535133C12.202 1.11023 7.26999 4.22058 4.01085 9.81707C0.788262 15.3508 -0.765625 23.2523 -0.765625 33.4062H1.23438ZM18.8766 2.52806C19.6337 2.4675 20.357 2.4375 21.0469 2.4375V0.4375C20.2993 0.4375 19.5226 0.469999 18.7171 0.534435L18.8766 2.52806ZM21.0469 2.4375C24.4117 2.4375 27.0813 3.26144 29.1343 4.83311C31.1895 6.40638 32.7232 8.80263 33.6798 12.1208L35.6015 11.5667C34.5581 7.94737 32.8261 5.14049 30.35 3.24502C27.8719 1.34793 24.7446 0.4375 21.0469 0.4375V2.4375ZM34.2977 10.9044L25.4383 14.1388L26.1242 16.0175L34.9836 12.7831L34.2977 10.9044ZM26.7391 14.7908C26.3151 13.3776 25.5852 12.2346 24.5027 11.4544C23.424 10.6769 22.0901 10.3281 20.5781 10.3281V12.3281C21.7849 12.3281 22.6776 12.6043 23.3333 13.0769C23.9851 13.5467 24.4974 14.2786 24.8234 15.3655L26.7391 14.7908ZM20.5781 10.3281C19.9608 10.3281 19.3036 10.3795 18.6086 10.4788L18.8914 12.4587C19.5089 12.3705 20.0704 12.3281 20.5781 12.3281V10.3281ZM18.5799 10.4833C15.099 11.0841 12.5514 13.3641 10.9102 17.0632C9.28832 20.7185 8.51562 25.8186 8.51562 32.2812H10.5156C10.5156 25.9314 11.282 21.1565 12.7383 17.8743C14.1751 14.6359 16.2447 12.9159 18.9201 12.4542L18.5799 10.4833ZM8.51562 32.2812C8.51562 33.4555 8.54736 34.6601 8.61069 35.895L10.6081 35.7925C10.5464 34.5899 10.5156 33.4195 10.5156 32.2812H8.51562ZM8.61008 35.8814C8.89282 43.3895 9.86733 49.1438 11.6015 53.0539C13.3517 57 15.9789 59.25 19.5469 59.25V57.25C17.0523 57.25 14.9921 55.7656 13.4298 52.243C11.8514 48.6843 10.8884 43.2355 10.6087 35.8061L8.61008 35.8814ZM19.5469 59.25H19.7344V57.25H19.5469V59.25ZM19.7522 59.2498C21.2935 59.2223 22.6662 58.7071 23.8296 57.7122C24.9759 56.7319 25.8759 55.3242 26.5706 53.5668C27.9534 50.0687 28.6094 44.9595 28.6094 38.3281H26.6094C26.6094 44.8842 25.9529 49.6891 24.7106 52.8316C24.0928 54.3945 23.3523 55.4888 22.5298 56.1921C21.7244 56.8808 20.8003 57.2308 19.7165 57.2502L19.7522 59.2498ZM27.6476 37.3289L17.8507 36.9539L17.7743 38.9524L27.5711 39.3274L27.6476 37.3289ZM18.808 38.0474L19.6518 29.1412L17.6607 28.9526L16.817 37.8588L18.808 38.0474ZM18.7036 30.0458L37.5005 29.1551L37.4058 27.1574L18.6089 28.048L18.7036 30.0458ZM36.4531 28.1551C36.4375 41.66 34.9573 51.667 32.0942 58.2743C30.6673 61.567 28.9179 63.9663 26.8821 65.5459C24.8597 67.115 22.5039 67.9157 19.7733 67.9375L19.7892 69.9375C22.9336 69.9124 25.7203 68.9787 28.1081 67.126C30.4825 65.2837 32.4108 62.5736 33.9293 59.0695C36.9568 52.083 38.4375 41.7463 38.4531 28.1574L36.4531 28.1551ZM45.9825 59.7031L45.9353 58.7042L45.1573 58.741L45.0024 59.5044L45.9825 59.7031ZM44.6231 66.4062L44.6425 67.4061L45.4439 67.3905L45.6032 66.605L44.6231 66.4062ZM34.9669 66.5938L33.9899 66.3803L33.7194 67.6182L34.9863 67.5936L34.9669 66.5938ZM46.3575 14.4688L46.3017 13.4703L45.5428 13.5127L45.3806 14.2553L46.3575 14.4688ZM53.9044 14.0469L54.864 13.7656L54.6408 13.0041L53.8486 13.0484L53.9044 14.0469ZM69.1856 66.1719V67.1719H70.5209L70.1452 65.8905L69.1856 66.1719ZM58.4981 66.1719L57.5232 66.3943L57.7006 67.1719H58.4981V66.1719ZM56.9044 59.1875L57.8793 58.965L57.6931 58.1491L56.8572 58.1886L56.9044 59.1875ZM54.7012 49.8125L54.7826 50.8092L55.934 50.7152L55.676 49.5891L54.7012 49.8125ZM51.0919 34.0625L52.0666 33.8391L50.1115 33.8653L51.0919 34.0625ZM47.8106 50.375L46.8303 50.1778L46.5684 51.4797L47.892 51.3717L47.8106 50.375ZM45.0024 59.5044L43.6431 66.2075L45.6032 66.605L46.9625 59.9019L45.0024 59.5044ZM44.6037 65.4064L34.9475 65.5939L34.9863 67.5936L44.6425 67.4061L44.6037 65.4064ZM35.9438 66.8072L47.3344 14.6822L45.3806 14.2553L33.9899 66.3803L35.9438 66.8072ZM46.4133 15.4672L53.9602 15.0453L53.8486 13.0484L46.3017 13.4703L46.4133 15.4672ZM52.9448 14.3282L68.226 66.4532L70.1452 65.8905L54.864 13.7656L52.9448 14.3282ZM69.1856 65.1719H58.4981V67.1719H69.1856V65.1719ZM59.4731 65.9494L57.8793 58.965L55.9294 59.41L57.5232 66.3943L59.4731 65.9494ZM56.8572 58.1886L45.9353 58.7042L46.0297 60.702L56.9515 60.1864L56.8572 58.1886ZM55.676 49.5891L52.0666 33.8391L50.1171 34.2859L53.7265 50.0359L55.676 49.5891ZM50.1115 33.8653L46.8303 50.1778L48.791 50.5722L52.0722 34.2597L50.1115 33.8653ZM47.892 51.3717L54.7826 50.8092L54.6199 48.8158L47.7293 49.3783L47.892 51.3717ZM87.2775 62.7031L86.3236 63.0033L86.5884 63.8448L87.4564 63.687L87.2775 62.7031ZM81.2306 43.4844L82.1845 43.1842L80.2307 43.4752L81.2306 43.4844ZM80.9962 68.9844L80.9485 69.9832L81.9866 70.0329L81.9962 68.9936L80.9962 68.9844ZM71.1994 68.5156L70.1994 68.5274L70.2105 69.4695L71.1516 69.5145L71.1994 68.5156ZM70.59 16.5781L70.7014 15.5844L69.5768 15.4582L69.5901 16.5899L70.59 16.5781ZM80.6212 17.7031L81.5854 17.4376L81.4056 16.7848L80.7327 16.7094L80.6212 17.7031ZM87.7462 43.5781L86.7821 43.8436L87.7026 47.1864L88.7037 43.8668L87.7462 43.5781ZM95.9025 16.5312L95.8819 15.5315L95.155 15.5465L94.9451 16.2425L95.9025 16.5312ZM104.996 16.3438L105.996 16.3555L106.008 15.3227L104.976 15.344L104.996 16.3438ZM104.387 68.2812L104.435 69.2801L105.376 69.2351L105.387 68.293L104.387 68.2812ZM94.59 68.75L93.59 68.7592L93.5996 69.7985L94.6378 69.7489L94.59 68.75ZM94.3556 43.25L95.3556 43.2408L93.4015 42.9505L94.3556 43.25ZM88.3087 62.5156L88.4876 63.4995L89.082 63.3914L89.2629 62.8151L88.3087 62.5156ZM88.2314 62.403L82.1845 43.1842L80.2767 43.7845L86.3236 63.0033L88.2314 62.403ZM80.2307 43.4752L79.9963 68.9752L81.9962 68.9936L82.2306 43.4936L80.2307 43.4752ZM81.044 67.9855L71.2472 67.5168L71.1516 69.5145L80.9485 69.9832L81.044 67.9855ZM72.1993 68.5039L71.5899 16.5664L69.5901 16.5899L70.1994 68.5274L72.1993 68.5039ZM70.4785 17.5719L80.5098 18.6969L80.7327 16.7094L70.7014 15.5844L70.4785 17.5719ZM79.6571 17.9686L86.7821 43.8436L88.7104 43.3126L81.5854 17.4376L79.6571 17.9686ZM88.7037 43.8668L96.8599 16.82L94.9451 16.2425L86.7888 43.2894L88.7037 43.8668ZM95.9231 17.531L105.017 17.3435L104.976 15.344L95.8819 15.5315L95.9231 17.531ZM103.996 16.332L103.387 68.2695L105.387 68.293L105.996 16.3555L103.996 16.332ZM104.339 67.2824L94.5422 67.7511L94.6378 69.7489L104.435 69.2801L104.339 67.2824ZM95.59 68.7408L95.3556 43.2408L93.3557 43.2592L93.59 68.7592L95.59 68.7408ZM93.4015 42.9505L87.3546 62.2162L89.2629 62.8151L95.3097 43.5495L93.4015 42.9505ZM88.1299 61.5318L87.0986 61.7193L87.4564 63.687L88.4876 63.4995L88.1299 61.5318ZM116.526 46.4375L116.615 45.4415L115.513 45.3423L115.526 46.4486L116.526 46.4375ZM116.666 59.1406L115.666 59.1517L115.678 60.2012L116.726 60.1389L116.666 59.1406ZM128.479 58.4375L129.477 58.3725L129.412 57.3802L128.419 57.4393L128.479 58.4375ZM129.135 68.5156V69.5156H130.202L130.133 68.4506L129.135 68.5156ZM106.869 68.5156L105.869 68.5274L105.881 69.5156H106.869V68.5156ZM106.26 16.5781L106.268 15.5782L105.248 15.5701L105.26 16.5899L106.26 16.5781ZM129.932 16.7656L130.929 16.694L130.863 15.773L129.94 15.7657L129.932 16.7656ZM130.588 25.9062L130.67 26.9029L131.656 26.822L131.586 25.8346L130.588 25.9062ZM116.291 27.0781L116.21 26.0815L115.282 26.1575L115.291 27.0876L116.291 27.0781ZM116.385 36.9688L115.385 36.9782L115.394 37.8841L116.296 37.9648L116.385 36.9688ZM127.401 37.9531L128.399 38.0028L128.447 37.0427L127.49 36.9571L127.401 37.9531ZM126.932 47.375L126.842 48.371L127.879 48.4644L127.931 47.4247L126.932 47.375ZM115.526 46.4486L115.666 59.1517L117.666 59.1296L117.526 46.4264L115.526 46.4486ZM116.726 60.1389L128.538 59.4357L128.419 57.4393L116.607 58.1424L116.726 60.1389ZM127.481 58.5025L128.137 68.5806L130.133 68.4506L129.477 58.3725L127.481 58.5025ZM129.135 67.5156H106.869V69.5156H129.135V67.5156ZM107.869 68.5039L107.26 16.5664L105.26 16.5899L105.869 68.5274L107.869 68.5039ZM106.252 17.5781L129.924 17.7656L129.94 15.7657L106.268 15.5782L106.252 17.5781ZM128.934 16.8372L129.591 25.9779L131.586 25.8346L130.929 16.694L128.934 16.8372ZM130.506 24.9096L116.21 26.0815L116.373 28.0748L130.67 26.9029L130.506 24.9096ZM115.291 27.0876L115.385 36.9782L117.385 36.9593L117.291 27.0686L115.291 27.0876ZM116.296 37.9648L127.312 38.9492L127.49 36.9571L116.474 35.9727L116.296 37.9648ZM126.402 37.9034L125.933 47.3253L127.931 47.4247L128.399 38.0028L126.402 37.9034ZM127.022 46.379L116.615 45.4415L116.436 47.4335L126.842 48.371L127.022 46.379ZM182.803 33.2188L181.803 33.2459L181.804 33.2532L182.803 33.2188ZM164.241 67.9062L164.153 66.91L164.141 66.9112L164.241 67.9062ZM144.741 35.1406H143.741V35.1435L144.741 35.1406ZM163.256 0.453125V-0.546955L163.244 -0.546795L163.256 0.453125ZM163.303 11.1406V10.1406H163.29L163.277 10.141L163.303 11.1406ZM154.163 35.0469H153.162L153.163 35.0511L154.163 35.0469ZM164.288 57.0312L164.117 56.0458L164.104 56.0481L164.091 56.0507L164.288 57.0312ZM173.475 33.125L174.475 33.098L174.474 33.0845L173.475 33.125ZM181.804 33.2532C181.835 34.1484 181.85 35.0275 181.85 35.8906H183.85C183.85 35.0037 183.834 34.1016 183.803 33.1843L181.804 33.2532ZM181.85 35.8906C181.85 45.9401 180.306 53.4646 177.333 58.5795C174.397 63.6315 170.036 66.3915 164.153 66.9101L164.328 68.9024C170.852 68.3273 175.796 65.2045 179.062 59.5846C182.292 54.0276 183.85 46.0912 183.85 35.8906H181.85ZM164.141 66.9112C163.547 66.9706 162.971 67 162.413 67V69C163.041 69 163.684 68.9669 164.34 68.9013L164.141 66.9112ZM162.413 67C159.645 67 157.267 66.3553 155.244 65.0972C153.219 63.8371 151.493 61.9267 150.086 59.3115C147.257 54.0516 145.772 46.0342 145.741 35.1378L143.741 35.1435C143.772 46.1533 145.263 54.5656 148.325 60.2588C149.864 63.1202 151.812 65.3172 154.188 66.7954C156.568 68.2756 159.321 69 162.413 69V67ZM145.741 35.1406V34.625H143.741V35.1406H145.741ZM145.741 34.625C145.741 23.3715 147.281 15.0669 150.249 9.58968C151.725 6.86567 153.543 4.86119 155.685 3.52528C157.825 2.19087 160.341 1.4901 163.269 1.45304L163.244 -0.546795C159.999 -0.50573 157.116 0.275923 154.627 1.82824C152.14 3.37904 150.1 5.66558 148.49 8.63688C145.286 14.5503 143.741 23.2535 143.741 34.625H145.741ZM163.256 1.45312H163.444V-0.546875H163.256V1.45312ZM163.444 1.45312C169.233 1.45312 173.604 3.98543 176.657 9.15322C179.756 14.3975 181.508 22.3869 181.803 33.2459L183.803 33.1916C183.504 22.2069 181.733 13.8134 178.379 8.13584C174.979 2.38176 169.967 -0.546875 163.444 -0.546875V1.45312ZM163.277 10.141C161.525 10.1859 159.97 10.7828 158.651 11.9217C157.348 13.0461 156.317 14.6617 155.517 16.6921C153.924 20.7364 153.163 26.6495 153.163 34.3438H155.163C155.163 26.7255 155.924 21.1152 157.378 17.4251C158.102 15.5883 158.975 14.2839 159.958 13.4357C160.923 12.6019 162.034 12.1735 163.329 12.1403L163.277 10.141ZM153.163 34.3438V35.0469H155.163V34.3438H153.163ZM153.163 35.0511C153.194 42.4627 153.944 48.1458 155.483 52.0107C156.256 53.9512 157.251 55.4926 158.51 56.5537C159.787 57.6302 161.29 58.1719 162.975 58.1719V56.1719C161.754 56.1719 160.709 55.7917 159.799 55.0244C158.871 54.2418 158.037 53.0175 157.342 51.2706C155.943 47.7604 155.194 42.381 155.162 35.0426L153.163 35.0511ZM162.975 58.1719C163.457 58.1719 163.961 58.1163 164.484 58.0118L164.091 56.0507C163.676 56.1337 163.305 56.1719 162.975 56.1719V58.1719ZM164.458 58.0167C167.933 57.4168 170.482 55.1617 172.126 51.4993C173.749 47.8817 174.522 42.8387 174.522 36.4531H172.522C172.522 42.7238 171.756 47.4386 170.301 50.6804C168.866 53.8773 166.798 55.5832 164.117 56.0458L164.458 58.0167ZM174.522 36.4531C174.522 35.3809 174.506 34.2625 174.475 33.098L172.475 33.152C172.506 34.3 172.522 35.4004 172.522 36.4531H174.522ZM174.474 33.0845C174.176 25.7156 173.185 20.0638 171.432 16.2216C169.66 12.3381 167.013 10.1406 163.444 10.1406V12.1406C165.968 12.1406 168.04 13.6072 169.612 17.0518C171.203 20.5378 172.181 25.8782 172.476 33.1655L174.474 33.0845ZM163.444 10.1406H163.303V12.1406H163.444V10.1406ZM219.223 18.7812L220.2 18.9947L220.471 17.7568L219.204 17.7814L219.223 18.7812ZM207.833 70.9062L207.888 71.9047L208.647 71.8623L208.809 71.1197L207.833 70.9062ZM200.286 71.3281L199.326 71.6095L199.549 72.3708L200.341 72.3266L200.286 71.3281ZM185.004 19.2031V18.2031H183.669L184.045 19.4845L185.004 19.2031ZM195.692 19.2031L196.666 18.9784L196.487 18.2031H195.692V19.2031ZM203.098 51.3125L202.124 51.5373L204.079 51.5086L203.098 51.3125ZM209.567 18.9688L209.547 17.9689L208.744 17.9845L208.586 18.7726L209.567 18.9688ZM218.246 18.5678L206.856 70.6928L208.809 71.1197L220.2 18.9947L218.246 18.5678ZM207.777 69.9078L200.23 70.3297L200.341 72.3266L207.888 71.9047L207.777 69.9078ZM201.245 71.0468L185.964 18.9218L184.045 19.4845L199.326 71.6095L201.245 71.0468ZM185.004 20.2031H195.692V18.2031H185.004V20.2031ZM194.717 19.4279L202.124 51.5373L204.073 51.0877L196.666 18.9784L194.717 19.4279ZM204.079 51.5086L210.547 19.1649L208.586 18.7726L202.118 51.1164L204.079 51.5086ZM209.586 19.9686L219.243 19.7811L219.204 17.7814L209.547 17.9689L209.586 19.9686ZM230.893 46.4375L230.983 45.4415L229.881 45.3423L229.893 46.4486L230.893 46.4375ZM231.034 59.1406L230.034 59.1517L230.045 60.2012L231.093 60.1389L231.034 59.1406ZM242.846 58.4375L243.844 58.3725L243.78 57.3802L242.787 57.4393L242.846 58.4375ZM243.503 68.5156V69.5156H244.57L244.5 68.4506L243.503 68.5156ZM221.237 68.5156L220.237 68.5274L220.249 69.5156H221.237V68.5156ZM220.628 16.5781L220.635 15.5782L219.616 15.5701L219.628 16.5899L220.628 16.5781ZM244.299 16.7656L245.297 16.694L245.231 15.773L244.307 15.7657L244.299 16.7656ZM244.956 25.9062L245.037 26.9029L246.024 26.822L245.953 25.8346L244.956 25.9062ZM230.659 27.0781L230.577 26.0815L229.65 26.1575L229.659 27.0876L230.659 27.0781ZM230.753 36.9688L229.753 36.9782L229.761 37.8841L230.663 37.9648L230.753 36.9688ZM241.768 37.9531L242.767 38.0028L242.815 37.0427L241.857 36.9571L241.768 37.9531ZM241.299 47.375L241.21 48.371L242.246 48.4644L242.298 47.4247L241.299 47.375ZM229.893 46.4486L230.034 59.1517L232.034 59.1296L231.893 46.4264L229.893 46.4486ZM231.093 60.1389L242.906 59.4357L242.787 57.4393L230.974 58.1424L231.093 60.1389ZM241.848 58.5025L242.505 68.5806L244.5 68.4506L243.844 58.3725L241.848 58.5025ZM243.503 67.5156H221.237V69.5156H243.503V67.5156ZM222.237 68.5039L221.627 16.5664L219.628 16.5899L220.237 68.5274L222.237 68.5039ZM220.62 17.5781L244.291 17.7656L244.307 15.7657L220.635 15.5782L220.62 17.5781ZM243.302 16.8372L243.958 25.9779L245.953 25.8346L245.297 16.694L243.302 16.8372ZM244.874 24.9096L230.577 26.0815L230.74 28.0748L245.037 26.9029L244.874 24.9096ZM229.659 27.0876L229.753 36.9782L231.752 36.9593L231.659 27.0686L229.659 27.0876ZM230.663 37.9648L241.679 38.9492L241.857 36.9571L230.842 35.9727L230.663 37.9648ZM240.769 37.9034L240.301 47.3253L242.298 47.4247L242.767 38.0028L240.769 37.9034ZM241.389 46.379L230.983 45.4415L230.803 47.4335L241.21 48.371L241.389 46.379ZM256.016 35.9844H255.016V37.0343L256.065 36.9832L256.016 35.9844ZM263.376 25.9062L262.379 25.9871L262.38 26.0004L263.376 25.9062ZM256.016 22.4375V21.4375H255.016V22.4375H256.016ZM257.797 45.0781L258.762 44.8152L258.512 43.8951L257.581 44.1019L257.797 45.0781ZM256.016 45.4531L255.82 44.4725L254.99 44.6386L255.017 45.4849L256.016 45.4531ZM256.673 66.125L256.654 67.1248L257.705 67.1439L257.672 66.0933L256.673 66.125ZM246.313 65.9375L245.313 65.9295L245.305 66.9194L246.295 66.9373L246.313 65.9375ZM246.735 13.3906V12.3906H245.743L245.735 13.3826L246.735 13.3906ZM272.985 27.5938H273.985V27.5773L273.984 27.5608L272.985 27.5938ZM266.61 41.2812L266.029 40.4671L265.449 40.8812L265.651 41.565L266.61 41.2812ZM275.751 72.1719L275.694 73.1703L277.113 73.2508L276.71 71.8881L275.751 72.1719ZM265.016 71.5625L264.051 71.8255L264.241 72.5201L264.96 72.5609L265.016 71.5625ZM256.065 36.9832C258.73 36.8532 260.896 36.2439 262.412 35.015C263.971 33.7503 264.704 31.9428 264.704 29.75H262.704C262.704 31.4634 262.155 32.6481 261.152 33.4616C260.105 34.3108 258.428 34.8655 255.968 34.9856L256.065 36.9832ZM264.704 29.75C264.704 29.4383 264.586 28.0851 264.371 25.8121L262.38 26.0004C262.489 27.1556 262.571 28.0505 262.625 28.6866C262.653 29.0049 262.673 29.2556 262.686 29.4404C262.692 29.5329 262.697 29.6062 262.7 29.6617C262.702 29.6894 262.703 29.7109 262.703 29.7271C262.704 29.7442 262.704 29.7508 262.704 29.75H264.704ZM264.372 25.8254C264.244 24.2458 263.307 23.1002 261.822 22.4001C260.397 21.7287 258.429 21.4375 256.016 21.4375V23.4375C258.322 23.4375 259.94 23.7244 260.969 24.2092C261.937 24.6654 262.319 25.2542 262.379 25.9871L264.372 25.8254ZM255.016 22.4375V35.9844H257.016V22.4375H255.016ZM257.581 44.1019C257.026 44.2253 256.439 44.3488 255.82 44.4725L256.212 46.4337C256.844 46.3075 257.444 46.181 258.014 46.0543L257.581 44.1019ZM255.017 45.4849L255.673 66.1567L257.672 66.0933L257.016 45.4214L255.017 45.4849ZM256.691 65.1252L246.331 64.9377L246.295 66.9373L256.654 67.1248L256.691 65.1252ZM247.313 65.9455L247.735 13.3987L245.735 13.3826L245.313 65.9295L247.313 65.9455ZM246.735 14.3906H247.391V12.3906H246.735V14.3906ZM247.391 14.3906C255.703 14.3906 261.821 15.5705 265.867 17.8158C269.836 20.0186 271.841 23.2564 271.986 27.6267L273.984 27.5608C273.816 22.4624 271.399 18.5985 266.837 16.067C262.352 13.5779 255.83 12.3906 247.391 12.3906V14.3906ZM271.985 27.5938V28.2031H273.985V27.5938H271.985ZM271.985 28.2031C271.985 33.6012 269.99 37.6423 266.029 40.4671L267.191 42.0954C271.73 38.8577 273.985 34.18 273.985 28.2031H271.985ZM265.651 41.565L274.792 72.4556L276.71 71.8881L267.569 40.9975L265.651 41.565ZM275.807 71.1735L265.073 70.5641L264.96 72.5609L275.694 73.1703L275.807 71.1735ZM265.981 71.2995L258.762 44.8152L256.833 45.3411L264.051 71.8255L265.981 71.2995Z" fill="black" mask="url(#path-1-outside-1_111_108)"/>
</g>
<defs>
<filter id="filter0_d_111_108" x="0.234375" y="0.453125" width="278.516" height="75.7188" filterUnits="userSpaceOnUse" color-interpolation-filters="sRGB">
<feFlood flood-opacity="0" result="BackgroundImageFix"/>
<feColorMatrix in="SourceAlpha" type="matrix" values="0 0 0 0 0 0 0 0 0 0 0 0 0 0 0 0 0 0 127 0" result="hardAlpha"/>
<feOffset dx="3" dy="4"/>
<feComposite in2="hardAlpha" operator="out"/>
<feColorMatrix type="matrix" values="0 0 0 0 0 0 0 0 0 0 0 0 0 0 0 0 0 0 1 0"/>
<feBlend mode="normal" in2="BackgroundImageFix" result="effect1_dropShadow_111_108"/>
<feBlend mode="normal" in="SourceGraphic" in2="effect1_dropShadow_111_108" result="shape"/>
</filter>
</defs>
</svg>
